<svg width="14" height="14" viewBox="0 0 14 14" fill="none" xmlns="http://www.w3.org/2000/svg">
<g clip-path="url(#clip0_106_211)">
<path d="M7 2.02344C8.31987 2.02344 9.58567 2.54775 10.519 3.48104C11.4522 4.41433 11.9766 5.68013 11.9766 7C11.9766 8.31987 11.4522 9.58567 10.519 10.519C9.58567 11.4522 8.31987 11.9766 7 11.9766C5.68013 11.9766 4.41433 11.4522 3.48104 10.519C2.54775 9.58567 2.02344 8.31987 2.02344 7C2.02344 5.68013 2.54775 4.41433 3.48104 3.48104C4.41433 2.54775 5.68013 2.02344 7 2.02344ZM7 13.125C8.62445 13.125 10.1824 12.4797 11.331 11.331C12.4797 10.1824 13.125 8.62445 13.125 7C13.125 5.37555 12.4797 3.81763 11.331 2.66897C10.1824 1.52031 8.62445 0.875 7 0.875C5.37555 0.875 3.81763 1.52031 2.66897 2.66897C1.52031 3.81763 0.875 5.37555 0.875 7C0.875 8.62445 1.52031 10.1824 2.66897 11.331C3.81763 12.4797 5.37555 13.125 7 13.125ZM5.06201 5.06201C4.83711 5.28691 4.83711 5.65059 5.06201 5.8731L6.18652 6.99761L5.06201 8.12212C4.83711 8.34702 4.83711 8.71069 5.06201 8.9332C5.28691 9.15571 5.65059 9.1581 5.8731 8.9332L6.99761 7.80869L8.12212 8.9332C8.34702 9.1581 8.71069 9.1581 8.9332 8.9332C9.15571 8.7083 9.1581 8.34463 8.9332 8.12212L7.80869 6.99761L8.9332 5.8731C9.1581 5.64819 9.1581 5.28452 8.9332 5.06201C8.7083 4.8395 8.34463 4.83711 8.12212 5.06201L6.99761 6.18652L5.8731 5.06201C5.64819 4.83711 5.28452 4.83711 5.06201 5.06201Z" fill="white"/>
</g>
<defs>
<clipPath id="clip0_106_211">
<rect width="14" height="14" fill="white"/>
</clipPath>
</defs>
</svg>
