<svg width="20" height="26" viewBox="0 0 20 26" fill="none" xmlns="http://www.w3.org/2000/svg">
<path d="M9.94672 0C7.83566 0 6.03773 1.35586 5.37613 3.25H3.48224C1.69946 3.25 0.25 4.70742 0.25 6.5V22.75C0.25 24.5426 1.69946 26 3.48224 26H16.4112C18.194 26 19.6434 24.5426 19.6434 22.75V6.5C19.6434 4.70742 18.194 3.25 16.4112 3.25H14.5173C13.8557 1.35586 12.0578 0 9.94672 0ZM9.94672 3.25C10.3753 3.25 10.7864 3.4212 11.0895 3.72595C11.3926 4.0307 11.5628 4.44402 11.5628 4.875C11.5628 5.30598 11.3926 5.7193 11.0895 6.02405C10.7864 6.32879 10.3753 6.5 9.94672 6.5C9.5181 6.5 9.10703 6.32879 8.80395 6.02405C8.50087 5.7193 8.3306 5.30598 8.3306 4.875C8.3306 4.44402 8.50087 4.0307 8.80395 3.72595C9.10703 3.4212 9.5181 3.25 9.94672 3.25ZM3.88627 13.8125C3.88627 13.4893 4.01397 13.1793 4.24128 12.9507C4.46859 12.7222 4.77689 12.5938 5.09836 12.5938C5.41983 12.5938 5.72813 12.7222 5.95544 12.9507C6.18275 13.1793 6.31045 13.4893 6.31045 13.8125C6.31045 14.1357 6.18275 14.4457 5.95544 14.6743C5.72813 14.9028 5.41983 15.0312 5.09836 15.0312C4.77689 15.0312 4.46859 14.9028 4.24128 14.6743C4.01397 14.4457 3.88627 14.1357 3.88627 13.8125ZM9.13866 13H15.6031C16.0476 13 16.4112 13.3656 16.4112 13.8125C16.4112 14.2594 16.0476 14.625 15.6031 14.625H9.13866C8.69423 14.625 8.3306 14.2594 8.3306 13.8125C8.3306 13.3656 8.69423 13 9.13866 13ZM3.88627 18.6875C3.88627 18.3643 4.01397 18.0543 4.24128 17.8257C4.46859 17.5972 4.77689 17.4688 5.09836 17.4688C5.41983 17.4688 5.72813 17.5972 5.95544 17.8257C6.18275 18.0543 6.31045 18.3643 6.31045 18.6875C6.31045 19.0107 6.18275 19.3207 5.95544 19.5493C5.72813 19.7778 5.41983 19.9062 5.09836 19.9062C4.77689 19.9062 4.46859 19.7778 4.24128 19.5493C4.01397 19.3207 3.88627 19.0107 3.88627 18.6875ZM8.3306 18.6875C8.3306 18.2406 8.69423 17.875 9.13866 17.875H15.6031C16.0476 17.875 16.4112 18.2406 16.4112 18.6875C16.4112 19.1344 16.0476 19.5 15.6031 19.5H9.13866C8.69423 19.5 8.3306 19.1344 8.3306 18.6875Z" fill="#E5E7EB"/>
</svg>
