<svg width="10" height="9" viewBox="0 0 10 9" fill="none" xmlns="http://www.w3.org/2000/svg">
<path d="M5 0.945312C5.94276 0.945312 6.84691 1.31982 7.51354 1.98646C8.18018 2.65309 8.55469 3.55724 8.55469 4.5C8.55469 5.44276 8.18018 6.34691 7.51354 7.01354C6.84691 7.68018 5.94276 8.05469 5 8.05469C4.05724 8.05469 3.15309 7.68018 2.48646 7.01354C1.81982 6.34691 1.44531 5.44276 1.44531 4.5C1.44531 3.55724 1.81982 2.65309 2.48646 1.98646C3.15309 1.31982 4.05724 0.945312 5 0.945312ZM5 8.875C6.16032 8.875 7.27312 8.41406 8.09359 7.59359C8.91406 6.77312 9.375 5.66032 9.375 4.5C9.375 3.33968 8.91406 2.22688 8.09359 1.40641C7.27312 0.585936 6.16032 0.125 5 0.125C3.83968 0.125 2.72688 0.585936 1.90641 1.40641C1.08594 2.22688 0.625 3.33968 0.625 4.5C0.625 5.66032 1.08594 6.77312 1.90641 7.59359C2.72688 8.41406 3.83968 8.875 5 8.875ZM3.61572 3.11572C3.45508 3.27637 3.45508 3.53613 3.61572 3.69507L4.41895 4.49829L3.61572 5.30151C3.45508 5.46216 3.45508 5.72192 3.61572 5.88086C3.77637 6.03979 4.03613 6.0415 4.19507 5.88086L4.99829 5.07764L5.80151 5.88086C5.96216 6.0415 6.22192 6.0415 6.38086 5.88086C6.53979 5.72021 6.5415 5.46045 6.38086 5.30151L5.57764 4.49829L6.38086 3.69507C6.5415 3.53442 6.5415 3.27466 6.38086 3.11572C6.22021 2.95679 5.96045 2.95508 5.80151 3.11572L4.99829 3.91895L4.19507 3.11572C4.03442 2.95508 3.77466 2.95508 3.61572 3.11572Z" fill="#4B5563"/>
</svg>
