<svg width="31" height="26" viewBox="0 0 31 26" fill="none" xmlns="http://www.w3.org/2000/svg">
<path d="M3.08555 15.3351L13.8499 25.3527C14.2967 25.7684 14.8864 26 15.5 26C16.1136 26 16.7033 25.7684 17.1501 25.3527L22.5323 20.3439L27.9145 15.3351C29.7254 13.6547 30.75 11.2972 30.75 8.8329V8.48849C30.75 4.33774 27.7417 0.798624 23.6373 0.11574C20.9209 -0.335557 18.1568 0.549223 16.2148 2.48505L15.5 3.19762L14.7852 2.48505C12.8432 0.549223 10.0791 -0.335557 7.3627 0.11574C3.2583 0.798624 0.25 4.33774 0.25 8.48849V8.8329C0.25 11.2972 1.27461 13.6547 3.08555 15.3351Z" fill="#E5E7EB"/>
</svg>
