<svg width="20" height="20" viewBox="0 0 20 20" fill="none" xmlns="http://www.w3.org/2000/svg">
<path d="M10 0C15.523 0 20 4.477 20 10C20 15.523 15.523 20 10 20C4.477 20 0 15.523 0 10C0 4.477 4.477 0 10 0ZM10 1.25C5.1675 1.25 1.25 5.1675 1.25 10C1.25 14.8325 5.1675 18.75 10 18.75C14.8325 18.75 18.75 14.8325 18.75 10C18.75 5.1675 14.8325 1.25 10 1.25ZM10.125 14C10.3239 14 10.5147 14.079 10.6553 14.2197C10.796 14.3603 10.875 14.5511 10.875 14.75C10.875 14.9489 10.796 15.1397 10.6553 15.2803C10.5147 15.421 10.3239 15.5 10.125 15.5C9.92609 15.5 9.73532 15.421 9.59467 15.2803C9.45402 15.1397 9.375 14.9489 9.375 14.75C9.375 14.5511 9.45402 14.3603 9.59467 14.2197C9.73532 14.079 9.92609 14 10.125 14ZM10.125 4.5C11.8075 4.5 13.25 5.941 13.25 7.6245C13.251 8.6845 12.8655 9.3595 11.911 10.3885L11.4035 10.932C10.892 11.5015 10.6895 11.8625 10.6705 12.2895L10.669 12.3705L10.666 12.4345L10.657 12.4965C10.6268 12.6483 10.5414 12.7835 10.4173 12.8759C10.2932 12.9684 10.1392 13.0115 9.98518 12.9969C9.83111 12.9824 9.68792 12.9112 9.58333 12.7971C9.47874 12.6831 9.42019 12.5342 9.419 12.3795C9.4125 11.485 9.7575 10.8735 10.573 9.987L11.0865 9.438C11.7655 8.692 12.0005 8.2515 12 7.625C12 6.6315 11.1175 5.75 10.125 5.75C9.165 5.75 8.307 6.577 8.253 7.5295L8.247 7.689C8.23129 7.84895 8.15457 7.99669 8.03277 8.10155C7.91097 8.20641 7.75346 8.26032 7.59296 8.25208C7.43245 8.24384 7.28129 8.17409 7.17087 8.05732C7.06045 7.94054 6.99925 7.78571 7 7.625C7 5.9425 8.443 4.5 10.125 4.5Z" fill="#3A24C6"/>
</svg>
