<svg width="10" height="14" viewBox="0 0 10 14" fill="none" xmlns="http://www.w3.org/2000/svg">
<path d="M4.29354 0.293701C4.68416 -0.0969238 5.31854 -0.0969238 5.70916 0.293701L9.70916 4.2937C9.99666 4.5812 10.081 5.00933 9.92479 5.38433C9.76854 5.75933 9.40604 6.00308 8.99979 6.00308L0.999786 5.99995C0.596662 5.99995 0.231037 5.7562 0.0747866 5.3812C-0.0814634 5.0062 0.00603655 4.57808 0.290412 4.29058L4.29041 0.290576L4.29354 0.293701ZM4.29354 13.7093L0.293537 9.70933C0.00603655 9.42183 -0.0783385 8.9937 0.0779115 8.6187C0.234162 8.2437 0.596661 7.99995 1.00291 7.99995H9.00291C9.40604 7.99995 9.77166 8.2437 9.92791 8.6187C10.0842 8.9937 9.99666 9.42183 9.71229 9.70933L5.71229 13.7093C5.32166 14.1 4.68729 14.1 4.29666 13.7093H4.29354Z" fill="#111827"/>
</svg>
