<svg width="23" height="26" viewBox="0 0 23 26" fill="none" xmlns="http://www.w3.org/2000/svg">
<path d="M11.4016 13C13.1296 13 14.7868 12.3152 16.0086 11.0962C17.2304 9.87721 17.9169 8.22391 17.9169 6.5C17.9169 4.77609 17.2304 3.12279 16.0086 1.90381C14.7868 0.68482 13.1296 0 11.4016 0C9.67369 0 8.01652 0.68482 6.79468 1.90381C5.57284 3.12279 4.88642 4.77609 4.88642 6.5C4.88642 8.22391 5.57284 9.87721 6.79468 11.0962C8.01652 12.3152 9.67369 13 11.4016 13ZM9.0755 15.4375C4.06183 15.4375 0 19.4898 0 24.4918C0 25.3246 0.676972 26 1.51174 26H21.2915C22.1263 26 22.8033 25.3246 22.8033 24.4918C22.8033 19.4898 18.7414 15.4375 13.7278 15.4375H9.0755Z" fill="#E5E7EB"/>
</svg>
