<svg width="22" height="19" viewBox="0 0 22 19" fill="none" xmlns="http://www.w3.org/2000/svg">
<path d="M0 1.58333C0 0.707552 0.702232 0 1.57143 0H20.4286C21.2978 0 22 0.707552 22 1.58333C22 2.45911 21.2978 3.16667 20.4286 3.16667H1.57143C0.702232 3.16667 0 2.45911 0 1.58333ZM0 9.5C0 8.62422 0.702232 7.91667 1.57143 7.91667H20.4286C21.2978 7.91667 22 8.62422 22 9.5C22 10.3758 21.2978 11.0833 20.4286 11.0833H1.57143C0.702232 11.0833 0 10.3758 0 9.5ZM22 17.4167C22 18.2924 21.2978 19 20.4286 19H1.57143C0.702232 19 0 18.2924 0 17.4167C0 16.5409 0.702232 15.8333 1.57143 15.8333H20.4286C21.2978 15.8333 22 16.5409 22 17.4167Z" fill="white"/>
</svg>
