<svg width="28" height="26" viewBox="0 0 28 26" fill="none" xmlns="http://www.w3.org/2000/svg">
<path d="M15.269 0.91396C15.0016 0.355429 14.4366 0 13.8161 0C13.1955 0 12.6356 0.355429 12.3631 0.91396L9.11935 7.63157L1.87503 8.70801C1.26966 8.79941 0.765177 9.22592 0.578519 9.80984C0.391862 10.3938 0.543206 11.0386 0.977058 11.4702L6.23373 16.7052L4.99271 24.1032C4.89182 24.7125 5.14405 25.3319 5.64349 25.6924C6.14292 26.0529 6.80379 26.0986 7.34863 25.8092L13.8211 22.3311L20.2936 25.8092C20.8384 26.0986 21.4993 26.058 21.9987 25.6924C22.4981 25.3269 22.7504 24.7125 22.6495 24.1032L21.4034 16.7052L26.6601 11.4702C27.0939 11.0386 27.2503 10.3938 27.0586 9.80984C26.8669 9.22592 26.3675 8.79941 25.7621 8.70801L18.5128 7.63157L15.269 0.91396Z" fill="#E5E7EB"/>
</svg>
